<svg xmlns="http://www.w3.org/2000/svg" viewBox="0 0 307.3 235.8"><defs><style>.cls-1{fill:#f68fb7;}.cls-2{fill:#ffb300;}.cls-3{fill:#9ad4c2;}.cls-4{fill:#3b4269;}</style></defs><g id="Calque_2" data-name="Calque 2"><g id="Calque_1-2" data-name="Calque 1"><path class="cls-1" d="M130.63,90c-39-15.24-58.38-9-78-3,0,0,15-20,59-15,0,0,3-37-16-60C95.63,12,130.63,32,130.63,90Z"/><ellipse class="cls-1" cx="95.13" cy="54.5" rx="11.5" ry="12.5"/><path class="cls-2" d="M88.63,6s39,9.7,63,64.85c0,0,21.92-50.85,61.46-64.85,0,0-32.46-2.9-61.46,35.55C130.63,16,109.07,6,88.63,6Z"/><ellipse class="cls-2" cx="152.13" cy="14" rx="12.5" ry="14"/><path class="cls-1" d="M173.63,90c39-15.24,58.38-9,78-3,0,0-15-20-59-15,0,0-3-37,16-60C208.63,12,173.63,32,173.63,90Z"/><ellipse class="cls-1" cx="209.13" cy="54.5" rx="11.5" ry="12.5"/><path class="cls-3" d="M214.63,85H228l7.62,9s-64,10-82,29c0,0,20-26,65-33Z"/><path class="cls-3" d="M90.09,85H76.71l-7.62,9s64,10,82,29c0,0-20-26-65-33Z"/><path class="cls-4" d="M139.15,179.1h-8V158.75L122.1,173.6h-.9l-9-14.85V179.1h-8v-35h8l9.5,15.55,9.5-15.55h8Z"/><path class="cls-4" d="M165.65,173.6h-13l-1.75,5.5h-8.75l11.9-35h10.2l11.9,35H167.4Zm-2.4-7.5-4.1-12.85-4.1,12.85Z"/><path class="cls-4" d="M191.4,165.65V179.1h-8V165.65L171.65,144.1h9.1l6.65,13.5,6.65-13.5h9.1Z"/><path class="cls-4" d="M8,207.8v6.75H21v7.7H8V235.1H0v-35H21.25v7.7Z"/><path class="cls-4" d="M24.5,217.6a18.2,18.2,0,1,1,18.2,18.2A18,18,0,0,1,24.5,217.6Zm28.4,0a10,10,0,0,0-10.2-10.4,10.4,10.4,0,0,0,0,20.8A10,10,0,0,0,52.9,217.6Z"/><path class="cls-4" d="M77.2,223.6H73.4v11.5h-8v-35h14a12,12,0,0,1,12,12A11.54,11.54,0,0,1,85,222.25L92.4,235.1H83.8Zm-3.8-7h6a4.53,4.53,0,0,0,0-9h-6Z"/><path class="cls-4" d="M131.15,235.1h-8V214.75L114.1,229.6h-.9l-9-14.85V235.1h-8v-35h8l9.5,15.55,9.5-15.55h8Z"/><path class="cls-4" d="M157.65,229.6h-13l-1.75,5.5h-8.75l11.9-35h10.2l11.9,35H159.4Zm-2.4-7.5-4.1-12.85-4.1,12.85Z"/><path class="cls-4" d="M192.15,207.8h-9v27.3h-8V207.8h-9v-7.7h26Z"/><path class="cls-4" d="M203.65,200.1v35h-8v-35Z"/><path class="cls-4" d="M208.15,217.6a18.2,18.2,0,1,1,18.2,18.2A18,18,0,0,1,208.15,217.6Zm28.4,0a10.2,10.2,0,1,0-10.2,10.4A10,10,0,0,0,236.55,217.6Z"/><path class="cls-4" d="M276.55,200.1v35h-6l-13.5-19v19h-8v-35h6l13.5,19v-19Z"/><path class="cls-4" d="M280.3,227.15l6.9-4a7.33,7.33,0,0,0,7.35,4.85c3.8,0,4.75-1.5,4.75-2.85,0-2.15-2-3-7.25-4.45s-10.3-3.95-10.3-10.65,5.7-10.65,11.75-10.65a13.58,13.58,0,0,1,12.8,7.9l-6.75,3.95c-1.2-2.5-2.85-4.05-6.05-4.05-2.5,0-3.75,1.25-3.75,2.65,0,1.6.85,2.7,6.3,4.35s11.25,3.45,11.25,10.85c0,6.75-5.4,10.75-13,10.75C287,235.8,282.25,232.3,280.3,227.15Z"/></g></g></svg>