<svg xmlns="http://www.w3.org/2000/svg" viewBox="0 0 199 123"><defs><style>.cls-1{fill:#ffffff;}.cls-2{fill:#ffffff;}.cls-3{fill:#ffffff;}</style></defs><g id="Calque_2" data-name="Calque 2"><g id="Calque_1-2" data-name="Calque 1"><path class="cls-1" d="M78,90C39,74.76,19.62,81,0,87c0,0,15-20,59-15,0,0,3-37-16-60C43,12,78,32,78,90Z"/><ellipse class="cls-1" cx="42.5" cy="54.5" rx="11.5" ry="12.5"/><path class="cls-2" d="M36,6s39,9.7,63,64.85C99,70.85,120.92,20,160.46,6,160.46,6,128,3.1,99,41.55,78,16,56.44,6,36,6Z"/><ellipse class="cls-2" cx="99.5" cy="14" rx="12.5" ry="14"/><path class="cls-1" d="M121,90c39-15.24,58.38-9,78-3,0,0-15-20-59-15,0,0-3-37,16-60C156,12,121,32,121,90Z"/><ellipse class="cls-1" cx="156.5" cy="54.5" rx="11.5" ry="12.5"/><path class="cls-3" d="M162,85h13.38L183,94s-64,10-82,29c0,0,20-26,65-33Z"/><path class="cls-3" d="M37.47,85H24.08l-7.61,9s64,10,82,29c0,0-20-26-65-33Z"/></g></g></svg>